<svg xmlns="http://www.w3.org/2000/svg" width="14.813" height="10.725" viewBox="0 0 14.813 10.725">
  <g id="arrow" transform="translate(746.314 -499.218)">
    <path id="Path_3" data-name="Path 3" d="M-734.624,505.481h-10.7a.865.865,0,0,1-.949-.614.883.883,0,0,1,.758-1.168,2.832,2.832,0,0,1,.312-.014h10.588c-.015-.1-.087-.141-.137-.191q-1.343-1.343-2.689-2.682a.889.889,0,0,1-.283-.941.887.887,0,0,1,1.47-.4c.335.314.652.647.976.971l3.421,3.425a.905.905,0,0,1,0,1.434c-1.445,1.447-2.894,2.89-4.332,4.343a.9.9,0,0,1-1.54-.373.847.847,0,0,1,.246-.873q.566-.57,1.136-1.137.8-.8,1.594-1.593a1.877,1.877,0,0,1,.155-.126Z" fill="#ff6700"/>
  </g>
</svg>
