<svg xmlns="http://www.w3.org/2000/svg" width="25.488" height="14.374" viewBox="0 0 25.488 14.374">
  <g id="arrow" transform="translate(752.82 -498.71)">
    <path id="Path_3" data-name="Path 3" d="M-731.758,507.017h-19.318a1.078,1.078,0,0,1-1.182-.765,1.1,1.1,0,0,1,.944-1.454,3.529,3.529,0,0,1,.389-.018h19.184c-.019-.129-.109-.176-.171-.238q-1.672-1.672-3.349-3.339a1.108,1.108,0,0,1-.353-1.171,1.1,1.1,0,0,1,1.83-.5c.417.391.812.805,1.216,1.21l4.26,4.265a1.127,1.127,0,0,1,0,1.785c-1.8,1.8-3.6,3.6-5.395,5.409a1.122,1.122,0,0,1-1.917-.465,1.055,1.055,0,0,1,.307-1.087q.7-.71,1.414-1.415.992-.992,1.985-1.983a2.328,2.328,0,0,1,.194-.157Z" fill="#fff" stroke="#fff" stroke-width="1"/>
  </g>
</svg>
