<svg xmlns="http://www.w3.org/2000/svg" width="20.007" height="20.003" viewBox="0 0 20.007 20.003">
  <path id="Call" d="M6.679,2,6.64,2c-1.423-.066-3.311,1.535-4.032,2.73A4.066,4.066,0,0,0,2.48,8.851l.107.244C4.3,13.3,10.712,19.669,14.935,21.426l.237.106a4.166,4.166,0,0,0,3.988-.066l.128-.087-.038.023c1.125-.644,2.8-2.577,2.749-4.032a2.489,2.489,0,0,0-.774-1.58c-.143-.146-.333-.321-.553-.511l-.35-.293-.187-.151-.391-.3-.2-.151-.4-.292a6.22,6.22,0,0,0-1.592-.915,2.415,2.415,0,0,0-1.862.368l-.257.145c-.4.227-.489.253-.605.21a8.334,8.334,0,0,1-4.738-4.759.226.226,0,0,1,.017-.166l.054-.121.092-.173.1-.167a2.594,2.594,0,0,0,.481-2.059,3.889,3.889,0,0,0-.521-1.013l-.255-.382q-.068-.1-.138-.2l-.292-.4-.151-.2-.3-.391L9.014,3.68l-.293-.35-.272-.306c-.086-.093-.167-.177-.24-.249A2.479,2.479,0,0,0,6.679,2ZM6.485,4l.04,0L6.508,4a.707.707,0,0,1,.3.208l.159.166.193.22.218.26.352.438.353.456.417.559.164.23.121.179a.714.714,0,0,1,.082.145.429.429,0,0,1-.056.278l-.08.16-.155.275a2.417,2.417,0,0,0-.358,2.284,10.373,10.373,0,0,0,5.886,5.906,2.311,2.311,0,0,0,2.138-.24l.478-.267c.233-.123.326-.143.419-.124l.029.012.115.069.179.122.359.259.581.438.6.474.4.332.22.193c.065.059.121.112.166.158a.718.718,0,0,1,.208.3c.014.437-1.069,1.713-1.65,2.117l-.182.117a2.2,2.2,0,0,1-2.226-.036l-.2-.09a22.409,22.409,0,0,1-6.082-4.421L9.1,14.627A23.289,23.289,0,0,1,4.526,8.545l-.1-.242A2.535,2.535,0,0,1,4.2,5.942l.068-.1A6.208,6.208,0,0,1,5.346,4.681,2.914,2.914,0,0,1,6.485,4Z" transform="translate(-1.992 -2)" fill="#111" fill-rule="evenodd"/>
</svg>
