<svg xmlns="http://www.w3.org/2000/svg" width="18" height="20.343" viewBox="0 0 18 20.343">
  <g id="location" transform="translate(-3 -2)">
    <path id="Path_75" data-name="Path 75" d="M12,2a8.9,8.9,0,0,0-9,9c0,2.7,1.8,5.916,5.328,9.736q.134.145.279.279a5,5,0,0,0,7.066-.279l.315-.344C19.309,16.722,21,13.619,21,11A8.9,8.9,0,0,0,12,2Zm0,2a6.9,6.9,0,0,1,7,7c0,2-1.476,4.714-4.492,8.046l-.308.337a3,3,0,0,1-4.236.163q-.087-.08-.167-.167C6.577,15.9,5,13.073,5,11A6.9,6.9,0,0,1,12,4Z" fill="#111" fill-rule="evenodd"/>
    <g id="Group_147" data-name="Group 147" opacity="0.5">
      <path id="Path_76" data-name="Path 76" d="M12,7a4,4,0,1,0,4,4A4,4,0,0,0,12,7Zm0,2a2,2,0,1,1-2,2A2,2,0,0,1,12,9Z" fill="#111" fill-rule="evenodd"/>
    </g>
  </g>
</svg>
