<svg xmlns="http://www.w3.org/2000/svg" width="20" height="18" viewBox="0 0 20 18">
  <g id="mail" transform="translate(-2 -3)">
    <path id="Path_62" data-name="Path 62" d="M17,3H7A5,5,0,0,0,2,8v8a5,5,0,0,0,5,5h9.992l.217,0A5.006,5.006,0,0,0,21.994,16l0-8L22,8A5,5,0,0,0,17,3Zm0,2,.176,0a3,3,0,0,1,2.818,2.817L20,8l0,8a3.006,3.006,0,0,1-3,3H7a3,3,0,0,1-3-3V8A3,3,0,0,1,7,5Z" fill="#111" fill-rule="evenodd"/>
    <g id="Group_145" data-name="Group 145" opacity="0.5">
      <path id="Path_63" data-name="Path 63" d="M7.293,8.293a1,1,0,0,1,1.32-.083l.094.083L9.879,9.464a3,3,0,0,0,4.1.135l.144-.135,1.172-1.172a1,1,0,0,1,1.5,1.32l-.083.094-1.172,1.172a5,5,0,0,1-6.89.172l-.181-.172L7.293,9.707A1,1,0,0,1,7.293,8.293Z" fill="#111" fill-rule="evenodd"/>
    </g>
  </g>
</svg>
