<svg xmlns="http://www.w3.org/2000/svg" width="60.531" height="60.423" viewBox="0 0 60.531 60.423">
  <g id="virtual_terminal" transform="translate(446.904 -313.053)">
    <path id="Path_30" data-name="Path 30" d="M-386.373,315.649v55.339c-.043.033-.109.058-.125.1a3.486,3.486,0,0,1-3.705,2.387q-26.406-.027-52.812-.011c-.216,0-.434.008-.65,0a3.31,3.31,0,0,1-2.972-1.987c-.082-.166-.053-.394-.268-.488V315.649a5.191,5.191,0,0,1,1.1-1.758,8.035,8.035,0,0,1,1.5-.838h55.211a3.645,3.645,0,0,1,2.287,1.688C-386.65,315.038-386.516,315.346-386.373,315.649Zm-30.264,8.732q-13.888,0-27.777-.011c-.477,0-.613.091-.612.594q.024,22.414.013,44.827c0,1.287.5,1.787,1.777,1.787h53.189c1.28,0,1.782-.5,1.782-1.783q0-22.413.013-44.827c0-.5-.124-.6-.608-.6Q-402.748,324.393-416.637,324.381Zm0-1.888q13.916,0,27.832.009c.418,0,.566-.065.557-.53-.033-1.788-.011-3.578-.014-5.366a1.462,1.462,0,0,0-1.663-1.664q-26.709,0-53.418,0a1.461,1.461,0,0,0-1.665,1.66c0,1.769.021,3.539-.015,5.308-.01.506.137.6.614.595Q-430.527,322.481-416.64,322.492Z" transform="translate(0 0)"/>
    <path id="Path_31" data-name="Path 31" d="M-295.257,475.231c-.667-.011-1.047-.743-.7-1.516q1.467-3.239,2.947-6.471l7.9-17.324c.418-.918.879-1.2,1.484-.913.569.273.649.809.25,1.684q-5.383,11.82-10.764,23.641C-294.353,474.8-294.588,475.216-295.257,475.231Z" transform="translate(-127.034 -114.423)" fill="#040404"/>
    <path id="Path_32" data-name="Path 32" d="M-372.285,477.113a.982.982,0,0,1,.817.5.859.859,0,0,1-.036.948,3.34,3.34,0,0,1-.434.48c-2.116,2.115-4.226,4.236-6.36,6.332-.352.345-.407.519-.019.9,2.2,2.147,4.359,4.326,6.527,6.5a.966.966,0,0,1-.046,1.6.9.9,0,0,1-1.185-.163q-3.849-3.833-7.688-7.676a.9.9,0,0,1,0-1.408q3.833-3.849,7.686-7.679A1.121,1.121,0,0,1-372.285,477.113Z" transform="translate(-55.472 -138.189)" fill="#060606"/>
    <path id="Path_33" data-name="Path 33" d="M-189.311,477.446a1.023,1.023,0,0,1,.806.358q3.78,3.777,7.56,7.554a.945.945,0,0,1-.023,1.538q-3.754,3.761-7.523,7.508a.949.949,0,0,1-1.454.111.954.954,0,0,1,.126-1.452c2.165-2.177,4.323-4.361,6.515-6.511.39-.382.329-.556-.019-.9-2.13-2.1-4.237-4.224-6.351-6.342a3.164,3.164,0,0,1-.393-.437.869.869,0,0,1-.035-.949A.845.845,0,0,1-189.311,477.446Z" transform="translate(-216.201 -138.468)" fill="#050505"/>
    <path id="Path_34" data-name="Path 34" d="M-152.1,344.866a.949.949,0,0,1-.917-.956.949.949,0,0,1,1-.93.953.953,0,0,1,.889.984A.954.954,0,0,1-152.1,344.866Z" transform="translate(-247.545 -25.206)" fill="#0c0c0c"/>
    <path id="Path_35" data-name="Path 35" d="M-127.139,343.9a.953.953,0,0,1-.907.967.953.953,0,0,1-.982-.891.948.948,0,0,1,.935-1A.949.949,0,0,1-127.139,343.9Z" transform="translate(-267.746 -25.212)" fill="#0c0c0c"/>
    <path id="Path_36" data-name="Path 36" d="M-104.068,342.983a.949.949,0,0,1,.92.954.953.953,0,0,1-1,.933.952.952,0,0,1-.89-.983A.948.948,0,0,1-104.068,342.983Z" transform="translate(-287.955 -25.21)" fill="#0c0c0c"/>
  </g>
</svg>
